<svg xmlns="http://www.w3.org/2000/svg" height="24px" viewBox="0 -960 960 960" width="24px" fill="#63d7fd">
    <g id='close'>
        <path d="m256-200-56-56 224-224-224-224 56-56 224 224 224-224 56 56-224 224 224 224-56 56-224-224-224 224Z" />
    </g>
    <g id='device'>
        <path d="M680-120q-17 0-28.5-11.5T640-160v-318q0-17 11.5-28.5T680-518h160q17 0 28.5 11.5T880-478v318q0 17-11.5 28.5T840-120H680Zm0-80h160v-238H680v238Zm-360 80v-80h80v-80H160q-33 0-56.5-23.5T80-360v-400q0-33 23.5-56.5T160-840h560q33 0 56.5 23.5T800-760v162h-80v-162H160v400h400v80h-80v80h80v80H320Zm28-290 92-70 92 70-34-114 92-74H476l-36-112-36 112H290l92 74-34 114Zm92-150Z" />
    </g>
    <g id='download'>
        <path d="M260-160q-91 0-155.5-63T40-377q0-78 47-139t123-78q17-72 85-137t145-65q33 0 56.5 23.5T520-716v242l64-62 56 56-160 160-160-160 56-56 64 62v-242q-76 14-118 73.5T280-520h-20q-58 0-99 41t-41 99q0 58 41 99t99 41h480q42 0 71-29t29-71q0-42-29-71t-71-29h-60v-80q0-48-22-89.5T600-680v-93q74 35 117 103.5T760-520q69 8 114.5 59.5T920-340q0 75-52.5 127.5T740-160H260Zm220-358Z"/>
    </g>
    <g id='import'>
        <path d="M400-280h160v-80H400v80Zm0-160h280v-80H400v80ZM280-600h400v-80H280v80Zm200 120ZM80-80v-80h102q-48-23-77.5-68T75-330q0-79 55.5-134.5T265-520v80q-45 0-77.5 32T155-330q0 39 24 69t61 38v-97h80v240H80Zm320-40v-80h360v-560H200v160h-80v-160q0-33 23.5-56.5T200-840h560q33 0 56.5 23.5T840-760v560q0 33-23.5 56.5T760-120H400Z" />
    </g>
    <g id="location">
        <path d="M480-160q18 0 34.5-2t33.5-6l-48-72H360v-40q0-33 23.5-56.5T440-360h80v-120h-80q-17 0-28.5-11.5T400-520v-80h-18q-26 0-44-17.5T320-661q0-9 2.5-18t7.5-17l62-91q-101 29-166.5 113T160-480h40v-40q0-17 11.5-28.5T240-560h80q17 0 28.5 11.5T360-520v40q0 17-11.5 28.5T320-440v40q0 33-23.5 56.5T240-320h-37q42 72 115 116t162 44Zm304-222q8-23 12-47.5t4-50.5q0-112-68-197.5T560-790v110q33 0 56.5 23.5T640-600v80q19 0 34 4.5t29 18.5l81 115ZM480-80q-83 0-156-31.5T197-197q-54-54-85.5-127T80-480q0-83 31.5-156T197-763q54-54 127-85.5T480-880q83 0 156 31.5T763-763q54 54 85.5 127T880-480q0 83-31.5 156T763-197q-54 54-127 85.5T480-80Z" />
    </g>
    <g id="copy">
        <path d="M360-240q-33 0-56.5-23.5T280-320v-480q0-33 23.5-56.5T360-880h360q33 0 56.5 23.5T800-800v480q0 33-23.5 56.5T720-240H360Zm0-80h360v-480H360v480ZM200-80q-33 0-56.5-23.5T120-160v-560h80v560h440v80H200Zm160-240v-480 480Z"/>
    </g>
    <g id="time">
        <path d="M200-80q-33 0-56.5-23.5T120-160v-560q0-33 23.5-56.5T200-800h40v-80h80v80h320v-80h80v80h40q33 0 56.5 23.5T840-720v560q0 33-23.5 56.5T760-80H200Zm0-80h560v-400H200v400Zm0-480h560v-80H200v80Zm0 0v-80 80Z"/>    
    </g>
    <g id="downloads">
       <path d="M260-160q-91 0-155.5-63T40-377q0-78 47-139t123-78q17-72 85-137t145-65q33 0 56.5 23.5T520-716v242l64-62 56 56-160 160-160-160 56-56 64 62v-242q-76 14-118 73.5T280-520h-20q-58 0-99 41t-41 99q0 58 41 99t99 41h480q42 0 71-29t29-71q0-42-29-71t-71-29h-60v-80q0-48-22-89.5T600-680v-93q74 35 117 103.5T760-520q69 8 114.5 59.5T920-340q0 75-52.5 127.5T740-160H260Zm220-358Z"/>    
    </g>
    <g id="devices">
       <path d="M480-540ZM80-160v-80h400v80H80Zm120-120q-33 0-56.5-23.5T120-360v-360q0-33 23.5-56.5T200-800h560q33 0 56.5 23.5T840-720H200v360h280v80H200Zm600 40v-320H640v320h160Zm-180 80q-25 0-42.5-17.5T560-220v-360q0-25 17.5-42.5T620-640h200q25 0 42.5 17.5T880-580v360q0 25-17.5 42.5T820-160H620Zm100-300q13 0 21.5-9t8.5-21q0-13-8.5-21.5T720-520q-12 0-21 8.5t-9 21.5q0 12 9 21t21 9Zm0 60Z"/>    
    </g>
    <g id="locations">
        <path d="M480-480q33 0 56.5-23.5T560-560q0-33-23.5-56.5T480-640q-33 0-56.5 23.5T400-560q0 33 23.5 56.5T480-480Zm0 294q122-112 181-203.5T720-552q0-109-69.5-178.5T480-800q-101 0-170.5 69.5T240-552q0 71 59 162.5T480-186Zm0 106Q319-217 239.5-334.5T160-552q0-150 96.5-239T480-880q127 0 223.5 89T800-552q0 100-79.5 217.5T480-80Zm0-480Z"/>  
    </g>
    <g id="pay">
        <path d="M200-280v-280h80v280h-80Zm240 0v-280h80v280h-80ZM80-120v-80h800v80H80Zm600-160v-280h80v280h-80ZM80-640v-80l400-200 400 200v80H80Zm178-80h444-444Zm0 0h444L480-830 258-720Z"/>  
    </g>
</svg>