<svg xmlns="http://www.w3.org/2000/svg" height="24px" viewBox="0 -960 960 960" width="24px" fill="#63d7fd">
    <g id='close'>
        <path d="m256-200-56-56 224-224-224-224 56-56 224 224 224-224 56 56-224 224 224 224-56 56-224-224-224 224Z" />
    </g>
    <g id='device'>
        <path d="M680-120q-17 0-28.5-11.5T640-160v-318q0-17 11.5-28.5T680-518h160q17 0 28.5 11.5T880-478v318q0 17-11.5 28.5T840-120H680Zm0-80h160v-238H680v238Zm-360 80v-80h80v-80H160q-33 0-56.5-23.5T80-360v-400q0-33 23.5-56.5T160-840h560q33 0 56.5 23.5T800-760v162h-80v-162H160v400h400v80h-80v80h80v80H320Zm28-290 92-70 92 70-34-114 92-74H476l-36-112-36 112H290l92 74-34 114Zm92-150Z" />
    </g>
    <g id='download'>
        <path d="M260-160q-91 0-155.5-63T40-377q0-78 47-139t123-78q17-72 85-137t145-65q33 0 56.5 23.5T520-716v242l64-62 56 56-160 160-160-160 56-56 64 62v-242q-76 14-118 73.5T280-520h-20q-58 0-99 41t-41 99q0 58 41 99t99 41h480q42 0 71-29t29-71q0-42-29-71t-71-29h-60v-80q0-48-22-89.5T600-680v-93q74 35 117 103.5T760-520q69 8 114.5 59.5T920-340q0 75-52.5 127.5T740-160H260Zm220-358Z"/>
    </g>
    <g id='import'>
        <path d="M400-280h160v-80H400v80Zm0-160h280v-80H400v80ZM280-600h400v-80H280v80Zm200 120ZM80-80v-80h102q-48-23-77.5-68T75-330q0-79 55.5-134.5T265-520v80q-45 0-77.5 32T155-330q0 39 24 69t61 38v-97h80v240H80Zm320-40v-80h360v-560H200v160h-80v-160q0-33 23.5-56.5T200-840h560q33 0 56.5 23.5T840-760v560q0 33-23.5 56.5T760-120H400Z" />
    </g>
    <g id="location">
        <path d="M480-160q18 0 34.5-2t33.5-6l-48-72H360v-40q0-33 23.5-56.5T440-360h80v-120h-80q-17 0-28.5-11.5T400-520v-80h-18q-26 0-44-17.5T320-661q0-9 2.5-18t7.5-17l62-91q-101 29-166.5 113T160-480h40v-40q0-17 11.5-28.5T240-560h80q17 0 28.5 11.5T360-520v40q0 17-11.5 28.5T320-440v40q0 33-23.5 56.5T240-320h-37q42 72 115 116t162 44Zm304-222q8-23 12-47.5t4-50.5q0-112-68-197.5T560-790v110q33 0 56.5 23.5T640-600v80q19 0 34 4.5t29 18.5l81 115ZM480-80q-83 0-156-31.5T197-197q-54-54-85.5-127T80-480q0-83 31.5-156T197-763q54-54 127-85.5T480-880q83 0 156 31.5T763-763q54 54 85.5 127T880-480q0 83-31.5 156T763-197q-54 54-127 85.5T480-80Z" />
    </g>
    <g id="copy">
        <path d="M360-240q-33 0-56.5-23.5T280-320v-480q0-33 23.5-56.5T360-880h360q33 0 56.5 23.5T800-800v480q0 33-23.5 56.5T720-240H360Zm0-80h360v-480H360v480ZM200-80q-33 0-56.5-23.5T120-160v-560h80v560h440v80H200Zm160-240v-480 480Z"/>
    </g>
    <g id="time">
        <path d="M200-80q-33 0-56.5-23.5T120-160v-560q0-33 23.5-56.5T200-800h40v-80h80v80h320v-80h80v80h40q33 0 56.5 23.5T840-720v560q0 33-23.5 56.5T760-80H200Zm0-80h560v-400H200v400Zm0-480h560v-80H200v80Zm0 0v-80 80Z"/>    
    </g>
    <g id="downloads">
       <path d="M260-160q-91 0-155.5-63T40-377q0-78 47-139t123-78q17-72 85-137t145-65q33 0 56.5 23.5T520-716v242l64-62 56 56-160 160-160-160 56-56 64 62v-242q-76 14-118 73.5T280-520h-20q-58 0-99 41t-41 99q0 58 41 99t99 41h480q42 0 71-29t29-71q0-42-29-71t-71-29h-60v-80q0-48-22-89.5T600-680v-93q74 35 117 103.5T760-520q69 8 114.5 59.5T920-340q0 75-52.5 127.5T740-160H260Zm220-358Z"/>    
    </g>
    <g id="devices">
       <path d="M480-540ZM80-160v-80h400v80H80Zm120-120q-33 0-56.5-23.5T120-360v-360q0-33 23.5-56.5T200-800h560q33 0 56.5 23.5T840-720H200v360h280v80H200Zm600 40v-320H640v320h160Zm-180 80q-25 0-42.5-17.5T560-220v-360q0-25 17.5-42.5T620-640h200q25 0 42.5 17.5T880-580v360q0 25-17.5 42.5T820-160H620Zm100-300q13 0 21.5-9t8.5-21q0-13-8.5-21.5T720-520q-12 0-21 8.5t-9 21.5q0 12 9 21t21 9Zm0 60Z"/>    
    </g>
    <g id="locations">
        <path d="M480-480q33 0 56.5-23.5T560-560q0-33-23.5-56.5T480-640q-33 0-56.5 23.5T400-560q0 33 23.5 56.5T480-480Zm0 294q122-112 181-203.5T720-552q0-109-69.5-178.5T480-800q-101 0-170.5 69.5T240-552q0 71 59 162.5T480-186Zm0 106Q319-217 239.5-334.5T160-552q0-150 96.5-239T480-880q127 0 223.5 89T800-552q0 100-79.5 217.5T480-80Zm0-480Z"/>  
    </g>
    <g id="pay">
        <path d="M200-280v-280h80v280h-80Zm240 0v-280h80v280h-80ZM80-120v-80h800v80H80Zm600-160v-280h80v280h-80ZM80-640v-80l400-200 400 200v80H80Zm178-80h444-444Zm0 0h444L480-830 258-720Z"/>  
    </g>
    <g id="logo">
        <path class="st0" d="M57,598V150.78s90.73,78.85,90.73,78.85c22.98,19.97,36.18,48.93,36.18,79.37v288.99H57ZM582.78,489.22l-90.73-78.85c-22.98-19.97-36.18-48.92-36.18-79.37V42h126.91v447.22ZM319.89,43.51v208.76c0,28.78,11.79,56.3,32.64,76.15l34.45,32.81c38.21,36.39,59.83,86.84,59.83,139.61v97.17h-126.91l1.51-135.98-.94-73.58c-.36-28.31-12.12-55.28-32.63-74.8l-35.02-33.36c-38.21-36.39-59.83-86.84-59.83-139.6V43.51h126.91Z"/>
    </g>
    <g id="hydra">
        <path d="M1 73V1.5H17V30.8H67.4V1.5H83.4V73H67.4V43.8H17V73H1ZM163.287 73V47.5L125.387 1.5H145.187L171.287 33.9L197.287 1.5H217.087L179.387 47.4V73H163.287ZM259.086 73V1.5H270.886L302.886 1.4C315.819 1.4 325.853 4.43333 332.986 10.5C340.119 16.5667 343.686 25.4667 343.686 37.2C343.686 48.9333 340.119 57.8333 332.986 63.9C325.853 69.9667 315.819 73 302.886 73H259.086ZM301.786 14.4H275.086V60H301.786C310.186 60 316.553 58.1667 320.886 54.5C325.219 50.8333 327.386 45.0667 327.386 37.2C327.386 29.2667 325.219 23.5 320.886 19.9C316.553 16.2333 310.186 14.4 301.786 14.4ZM388.715 73V1.5H448.615C456.015 1.5 461.748 3.36666 465.815 7.1C469.948 10.8333 472.015 16.5 472.015 24.1C472.015 30.5667 470.515 35.6333 467.515 39.3C464.515 42.9667 460.248 45.2667 454.715 46.2L471.215 73H453.015L437.715 46.7H404.715V73H388.715ZM446.715 14.5H404.715V33.6L446.715 33.7C449.648 33.7 451.882 32.9667 453.415 31.5C455.015 30.0333 455.815 27.5667 455.815 24.1C455.815 20.5667 455.015 18.1 453.415 16.7C451.882 15.2333 449.648 14.5 446.715 14.5ZM513.027 73L545.227 1.5H569.927L602.127 73H584.727L577.927 57.9H537.227L530.427 73H513.027ZM543.027 44.9H572.127L558.227 14H556.927L543.027 44.9Z" fill="white"/>
        <path d="M1 73H2.98023e-08V74H1V73ZM1 1.5V0.499997H2.98023e-08V1.5H1ZM17 1.5H18V0.499997H17V1.5ZM17 30.8H16V31.8H17V30.8ZM67.4 30.8V31.8H68.4V30.8H67.4ZM67.4 1.5V0.499997H66.4V1.5H67.4ZM83.4 1.5H84.4V0.499997H83.4V1.5ZM83.4 73V74H84.4V73H83.4ZM67.4 73H66.4V74H67.4V73ZM67.4 43.8H68.4V42.8H67.4V43.8ZM17 43.8V42.8H16V43.8H17ZM17 73V74H18V73H17ZM1 73H2V1.5H1H2.98023e-08V73H1ZM1 1.5V2.5H17V1.5V0.499997H1V1.5ZM17 1.5H16V30.8H17H18V1.5H17ZM17 30.8V31.8H67.4V30.8V29.8H17V30.8ZM67.4 30.8H68.4V1.5H67.4H66.4V30.8H67.4ZM67.4 1.5V2.5H83.4V1.5V0.499997H67.4V1.5ZM83.4 1.5H82.4V73H83.4H84.4V1.5H83.4ZM83.4 73V72H67.4V73V74H83.4V73ZM67.4 73H68.4V43.8H67.4H66.4V73H67.4ZM67.4 43.8V42.8H17V43.8V44.8H67.4V43.8ZM17 43.8H16V73H17H18V43.8H17ZM17 73V72H1V73V74H17V73ZM163.287 73H162.287V74H163.287V73ZM163.287 47.5H164.287V47.1411L164.059 46.8641L163.287 47.5ZM125.387 1.5V0.499997H123.267L124.615 2.13588L125.387 1.5ZM145.187 1.5L145.965 0.872667L145.665 0.499997H145.187V1.5ZM171.287 33.9L170.508 34.5273L171.288 35.4959L172.067 34.5259L171.287 33.9ZM197.287 1.5V0.499997H196.807L196.507 0.874128L197.287 1.5ZM217.087 1.5L217.859 2.1347L219.202 0.499997H217.087V1.5ZM179.387 47.4L178.614 46.7653L178.387 47.042V47.4H179.387ZM179.387 73V74H180.387V73H179.387ZM163.287 73H164.287V47.5H163.287H162.287V73H163.287ZM163.287 47.5L164.059 46.8641L126.159 0.864113L125.387 1.5L124.615 2.13588L162.515 48.1359L163.287 47.5ZM125.387 1.5V2.5H145.187V1.5V0.499997H125.387V1.5ZM145.187 1.5L144.408 2.12733L170.508 34.5273L171.287 33.9L172.065 33.2727L145.965 0.872667L145.187 1.5ZM171.287 33.9L172.067 34.5259L198.067 2.12587L197.287 1.5L196.507 0.874128L170.507 33.2741L171.287 33.9ZM197.287 1.5V2.5H217.087V1.5V0.499997H197.287V1.5ZM217.087 1.5L216.314 0.865293L178.614 46.7653L179.387 47.4L180.159 48.0347L217.859 2.1347L217.087 1.5ZM179.387 47.4H178.387V73H179.387H180.387V47.4H179.387ZM179.387 73V72H163.287V73V74H179.387V73ZM259.086 73H258.086V74H259.086V73ZM259.086 1.5V0.499997H258.086V1.5H259.086ZM270.886 1.5L270.886 2.5L270.889 2.49999L270.886 1.5ZM302.886 1.4L302.886 0.399993L302.883 0.400003L302.886 1.4ZM332.986 10.5L332.338 11.2618L332.338 11.2618L332.986 10.5ZM332.986 63.9L332.338 63.1382L332.338 63.1382L332.986 63.9ZM275.086 14.4V13.4H274.086V14.4H275.086ZM275.086 60H274.086V61H275.086V60ZM320.886 54.5L321.532 55.2634L321.532 55.2634L320.886 54.5ZM320.886 19.9L320.24 20.6634L320.247 20.6692L320.886 19.9ZM259.086 73H260.086V1.5H259.086H258.086V73H259.086ZM259.086 1.5V2.5H270.886V1.5V0.499997H259.086V1.5ZM270.886 1.5L270.889 2.49999L302.889 2.39999L302.886 1.4L302.883 0.400003L270.883 0.500002L270.886 1.5ZM302.886 1.4V2.4C315.672 2.4 325.444 5.39864 332.338 11.2618L332.986 10.5L333.634 9.73824C326.261 3.46802 315.967 0.399998 302.886 0.399998V1.4ZM332.986 10.5L332.338 11.2618C339.193 17.0919 342.686 25.6795 342.686 37.2H343.686H344.686C344.686 25.2538 341.045 16.0415 333.634 9.73824L332.986 10.5ZM343.686 37.2H342.686C342.686 48.7205 339.193 57.3081 332.338 63.1382L332.986 63.9L333.634 64.6618C341.045 58.3585 344.686 49.1462 344.686 37.2H343.686ZM332.986 63.9L332.338 63.1382C325.444 69.0014 315.672 72 302.886 72V73V74C315.967 74 326.261 70.932 333.634 64.6618L332.986 63.9ZM302.886 73V72H259.086V73V74H302.886V73ZM301.786 14.4V13.4H275.086V14.4V15.4H301.786V14.4ZM275.086 14.4H274.086V60H275.086H276.086V14.4H275.086ZM275.086 60V61H301.786V60V59H275.086V60ZM301.786 60V61C310.312 61 316.949 59.1414 321.532 55.2634L320.886 54.5L320.24 53.7366C316.156 57.1919 310.06 59 301.786 59V60ZM320.886 54.5L321.532 55.2634C326.167 51.3414 328.386 45.242 328.386 37.2H327.386H326.386C326.386 44.8913 324.272 50.3252 320.24 53.7366L320.886 54.5ZM327.386 37.2H328.386C328.386 29.096 326.169 22.9891 321.525 19.1308L320.886 19.9L320.247 20.6692C324.269 24.0109 326.386 29.4373 326.386 37.2H327.386ZM320.886 19.9L321.532 19.1366C316.949 15.2586 310.312 13.4 301.786 13.4V14.4V15.4C310.06 15.4 316.156 17.2081 320.24 20.6634L320.886 19.9ZM388.715 73H387.715V74H388.715V73ZM388.715 1.5V0.499997H387.715V1.5H388.715ZM465.815 7.1L465.139 7.83667L465.145 7.8421L465.815 7.1ZM454.715 46.2L454.549 45.2139L453.085 45.4607L453.863 46.7243L454.715 46.2ZM471.215 73V74H473.005L472.066 72.4757L471.215 73ZM453.015 73L452.15 73.5028L452.44 74H453.015V73ZM437.715 46.7L438.579 46.1971L438.29 45.7H437.715V46.7ZM404.715 46.7V45.7H403.715V46.7H404.715ZM404.715 73V74H405.715V73H404.715ZM404.715 14.5V13.5H403.715V14.5H404.715ZM404.715 33.6H403.715V34.5976L404.712 34.6L404.715 33.6ZM446.715 33.7L446.712 34.7H446.715V33.7ZM453.415 31.5L452.739 30.7628L452.731 30.77L452.724 30.7774L453.415 31.5ZM453.415 16.7L452.724 17.4226L452.74 17.438L452.756 17.4526L453.415 16.7ZM388.715 73H389.715V1.5H388.715H387.715V73H388.715ZM388.715 1.5V2.5H448.615V1.5V0.499997H388.715V1.5ZM448.615 1.5V2.5C455.851 2.5 461.312 4.32344 465.139 7.83665L465.815 7.1L466.491 6.36334C462.185 2.40989 456.178 0.499997 448.615 0.499997V1.5ZM465.815 7.1L465.145 7.8421C469 11.3241 471.015 16.6755 471.015 24.1H472.015H473.015C473.015 16.3245 470.897 10.3425 466.485 6.35789L465.815 7.1ZM472.015 24.1H471.015C471.015 30.4197 469.549 35.2344 466.741 38.6668L467.515 39.3L468.289 39.9332C471.48 36.0323 473.015 30.7136 473.015 24.1H472.015ZM467.515 39.3L466.741 38.6668C463.921 42.1128 459.89 44.313 454.549 45.2139L454.715 46.2L454.881 47.1861C460.607 46.2203 465.108 43.8206 468.289 39.9332L467.515 39.3ZM454.715 46.2L453.863 46.7243L470.363 73.5243L471.215 73L472.066 72.4757L455.566 45.6757L454.715 46.2ZM471.215 73V72H453.015V73V74H471.215V73ZM453.015 73L453.879 72.4972L438.579 46.1971L437.715 46.7L436.85 47.2028L452.15 73.5028L453.015 73ZM437.715 46.7V45.7H404.715V46.7V47.7H437.715V46.7ZM404.715 46.7H403.715V73H404.715H405.715V46.7H404.715ZM404.715 73V72H388.715V73V74H404.715V73ZM446.715 14.5V13.5H404.715V14.5V15.5H446.715V14.5ZM404.715 14.5H403.715V33.6H404.715H405.715V14.5H404.715ZM404.715 33.6L404.712 34.6L446.712 34.7L446.715 33.7L446.717 32.7L404.717 32.6L404.715 33.6ZM446.715 33.7V34.7C449.806 34.7 452.325 33.926 454.106 32.2226L453.415 31.5L452.724 30.7774C451.438 32.0073 449.49 32.7 446.715 32.7V33.7ZM453.415 31.5L454.091 32.2372C455.993 30.4934 456.815 27.6836 456.815 24.1H455.815H454.815C454.815 27.4498 454.037 29.5733 452.739 30.7628L453.415 31.5ZM455.815 24.1H456.815C456.815 20.4628 455.999 17.632 454.073 15.9474L453.415 16.7L452.756 17.4526C454.031 18.568 454.815 20.6705 454.815 24.1H455.815ZM453.415 16.7L454.106 15.9774C452.325 14.274 449.806 13.5 446.715 13.5V14.5V15.5C449.49 15.5 451.438 16.1927 452.724 17.4226L453.415 16.7ZM513.027 73L512.116 72.5894L511.48 74H513.027V73ZM545.227 1.5V0.499997H544.581L544.316 1.08937L545.227 1.5ZM569.927 1.5L570.839 1.08937L570.574 0.499997H569.927V1.5ZM602.127 73V74H603.674L603.039 72.5894L602.127 73ZM584.727 73L583.816 73.4106L584.081 74H584.727V73ZM577.927 57.9L578.839 57.4894L578.574 56.9H577.927V57.9ZM537.227 57.9V56.9H536.581L536.316 57.4894L537.227 57.9ZM530.427 73V74H531.074L531.339 73.4106L530.427 73ZM543.027 44.9L542.115 44.4898L541.481 45.9H543.027V44.9ZM572.127 44.9V45.9H573.674L573.039 44.4898L572.127 44.9ZM558.227 14L559.139 13.5898L558.874 13H558.227V14ZM556.927 14V13H556.281L556.015 13.5898L556.927 14ZM513.027 73L513.939 73.4106L546.139 1.91063L545.227 1.5L544.316 1.08937L512.116 72.5894L513.027 73ZM545.227 1.5V2.5H569.927V1.5V0.499997H545.227V1.5ZM569.927 1.5L569.016 1.91063L601.216 73.4106L602.127 73L603.039 72.5894L570.839 1.08937L569.927 1.5ZM602.127 73V72H584.727V73V74H602.127V73ZM584.727 73L585.639 72.5894L578.839 57.4894L577.927 57.9L577.016 58.3106L583.816 73.4106L584.727 73ZM577.927 57.9V56.9H537.227V57.9V58.9H577.927V57.9ZM537.227 57.9L536.316 57.4894L529.516 72.5894L530.427 73L531.339 73.4106L538.139 58.3106L537.227 57.9ZM530.427 73V72H513.027V73V74H530.427V73ZM543.027 44.9V45.9H572.127V44.9V43.9H543.027V44.9ZM572.127 44.9L573.039 44.4898L559.139 13.5898L558.227 14L557.315 14.4102L571.215 45.3102L572.127 44.9ZM558.227 14V13H556.927V14V15H558.227V14ZM556.927 14L556.015 13.5898L542.115 44.4898L543.027 44.9L543.939 45.3102L557.839 14.4102L556.927 14Z" fill="white"/>
    </g>

</svg>